<?xml version="1.0" standalone="no"?>
<!DOCTYPE svg PUBLIC "-//W3C//DTD SVG 20010904//EN"
 "http://www.w3.org/TR/2001/REC-SVG-20010904/DTD/svg10.dtd">
<svg version="1.0" xmlns="http://www.w3.org/2000/svg"
 width="970.000000pt" height="970.000000pt" viewBox="0 0 970.000000 970.000000"
 preserveAspectRatio="xMidYMid meet">
<metadata>
Created by potrace 1.11, written by Peter Selinger 2001-2013
</metadata>
<g transform="translate(0.000000,970.000000) scale(0.100000,-0.100000)"
fill="#000000" stroke="none">
<path d="M6528 9101 c-55 -69 -56 -71 -53 -127 2 -31 6 -141 10 -243 3 -102 8
-240 10 -306 3 -66 7 -190 10 -275 3 -85 8 -218 10 -295 3 -77 8 -198 10 -270
3 -71 7 -195 10 -275 14 -402 22 -612 30 -855 3 -82 7 -208 10 -280 8 -223 15
-424 20 -575 2 -80 7 -208 10 -285 3 -77 7 -210 10 -295 3 -85 8 -209 10 -275
3 -66 7 -196 10 -290 3 -93 7 -215 10 -270 2 -55 7 -179 10 -275 3 -96 8 -229
10 -295 2 -66 7 -190 10 -275 5 -148 8 -250 20 -565 3 -77 7 -205 10 -285 5
-161 14 -424 20 -570 2 -52 7 -187 10 -300 4 -113 8 -232 10 -266 2 -55 20
-98 204 -495 l202 -434 -6 105 c-3 58 -8 130 -10 160 -2 30 -7 100 -10 155 -4
55 -8 129 -11 165 -12 186 -22 344 -29 450 -11 186 -16 269 -20 325 -3 33 -7
105 -10 160 -3 55 -7 127 -10 160 -2 33 -7 101 -10 150 -3 50 -7 119 -10 155
-2 36 -7 103 -10 150 -3 47 -8 121 -11 165 -3 44 -7 116 -9 160 -3 44 -7 114
-10 155 -12 183 -15 240 -20 315 -3 44 -7 109 -10 145 -3 36 -7 112 -10 170
-3 58 -8 128 -10 155 -3 28 -7 95 -10 150 -3 55 -8 127 -10 160 -2 33 -7 105
-10 160 -3 55 -8 125 -10 155 -2 30 -7 99 -10 154 -3 54 -8 119 -10 145 -16
203 -17 319 -1 241 3 -14 10 -41 16 -60 6 -19 24 -87 42 -150 17 -63 46 -171
65 -240 18 -69 35 -132 37 -140 2 -8 20 -76 41 -150 20 -74 79 -292 131 -485
107 -397 134 -499 174 -640 15 -55 51 -188 80 -295 29 -107 95 -350 146 -540
52 -189 94 -347 94 -351 0 -3 -117 -7 -260 -7 -143 0 -264 -3 -269 -6 -5 -3
-7 -14 -5 -24 2 -9 5 -37 7 -62 l4 -45 199 1 c109 1 357 5 549 9 193 4 422 8
510 10 536 11 918 19 973 19 34 0 62 3 62 5 0 24 -36 91 -49 92 -9 0 -64 0
-123 1 l-107 0 -14 32 c-9 17 -106 234 -217 481 -111 248 -213 475 -227 505
-14 30 -42 93 -63 140 -21 47 -49 110 -63 140 -14 30 -55 123 -92 205 -36 83
-72 164 -80 180 -59 130 -458 1018 -582 1295 -85 190 -165 368 -178 395 -13
28 -41 91 -63 140 -22 50 -49 110 -60 135 -12 25 -121 268 -243 540 -220 491
-245 546 -295 658 -14 31 -60 134 -101 227 -42 94 -91 204 -110 245 -97 209
-101 221 -108 320 -3 52 -8 124 -10 160 -3 36 -7 103 -10 150 -3 47 -7 119
-10 161 -2 41 -7 113 -10 160 -5 87 -12 196 -20 309 -2 36 -7 108 -10 160 -3
52 -8 122 -10 155 -6 87 -18 265 -19 302 -1 18 -4 35 -7 38 -3 3 -31 -26 -61
-64z m232 -1841 c23 -52 50 -113 60 -135 10 -22 68 -152 130 -290 61 -137 120
-270 132 -295 11 -25 52 -115 90 -200 38 -85 78 -173 88 -195 10 -22 57 -125
103 -230 47 -104 101 -225 121 -268 20 -42 36 -79 36 -81 0 -3 15 -37 34 -78
18 -40 133 -293 254 -563 121 -269 231 -515 245 -545 14 -30 73 -163 132 -295
59 -132 117 -262 130 -290 13 -27 103 -228 200 -445 98 -217 193 -428 211
-468 19 -41 34 -75 34 -77 0 -2 15 -36 34 -77 33 -71 343 -760 353 -786 4 -9
-31 -11 -158 -10 l-164 3 -126 305 c-70 168 -208 503 -308 745 -100 242 -188
454 -195 470 -8 17 -51 120 -96 230 -118 288 -629 1524 -645 1560 -7 17 -34
82 -59 145 -26 63 -51 124 -56 135 -5 11 -55 130 -110 265 -56 135 -116 281
-135 325 -18 44 -108 260 -198 480 l-166 400 -5 95 c-3 52 -9 135 -12 185 -3
49 -3 88 -1 85 2 -3 23 -48 47 -100z m107 -685 c25 -60 52 -123 59 -140 6 -16
76 -185 154 -375 78 -190 148 -358 156 -375 7 -16 94 -228 194 -470 99 -242
185 -449 190 -460 11 -23 426 -1027 507 -1225 30 -74 61 -148 68 -165 8 -16
53 -124 100 -240 127 -309 156 -377 171 -411 7 -17 35 -85 62 -150 27 -65 94
-229 150 -364 56 -136 102 -251 102 -257 0 -6 -55 -10 -158 -11 l-159 -1 -202
542 c-111 298 -213 569 -226 602 -13 33 -154 409 -313 835 -160 426 -439 1173
-621 1660 -183 487 -334 902 -336 924 -2 21 -7 82 -10 135 -3 53 -7 130 -10
171 l-5 75 41 -95 c22 -52 61 -144 86 -205z m-41 -367 c14 -40 29 -82 34 -93
5 -11 66 -173 135 -360 70 -187 137 -367 150 -400 35 -92 84 -224 107 -285 11
-30 24 -64 28 -75 5 -11 45 -119 90 -240 44 -121 85 -229 90 -240 5 -11 45
-119 90 -240 44 -121 85 -229 90 -240 5 -11 18 -47 30 -80 11 -33 25 -69 30
-80 5 -11 41 -108 80 -215 40 -107 103 -276 140 -375 38 -99 125 -333 195
-520 69 -187 133 -356 140 -375 35 -87 165 -440 165 -449 0 -6 -60 -9 -161 -8
l-160 2 -50 150 c-27 83 -52 157 -54 165 -2 8 -21 69 -43 135 -22 66 -115 350
-207 630 -91 281 -177 542 -190 580 -13 39 -105 320 -205 625 -100 305 -203
620 -230 700 -69 210 -300 920 -310 955 -9 29 -13 80 -25 310 -3 55 -8 111
-10 125 l-5 25 15 -27 c8 -15 26 -60 41 -100z m28 -575 c26 -83 272 -837 376
-1153 26 -80 116 -354 200 -610 83 -256 194 -593 245 -750 52 -157 132 -402
179 -545 47 -143 112 -343 146 -445 33 -101 60 -187 60 -191 0 -4 -73 -7 -161
-6 l-162 2 -23 80 c-20 73 -157 579 -189 700 -8 28 -26 95 -41 150 -14 55 -37
138 -49 185 -13 47 -42 153 -65 235 -22 83 -50 182 -60 220 -10 39 -55 205
-100 370 -45 165 -90 332 -100 370 -10 39 -49 180 -85 315 -37 135 -70 259
-75 275 -4 17 -29 108 -54 203 -55 203 -52 179 -71 522 -4 58 -8 117 -9 133
-6 52 10 26 38 -60z"/>
<path d="M6177 8701 c-69 -76 -64 -52 -82 -386 -3 -44 -7 -114 -10 -155 -2
-41 -7 -124 -11 -185 -4 -60 -8 -126 -10 -145 -1 -19 -3 -47 -3 -62 -1 -20
-39 -70 -149 -195 -81 -92 -161 -183 -177 -202 -41 -47 -110 -125 -170 -191
-27 -31 -77 -87 -111 -125 -242 -276 -302 -344 -330 -375 -17 -19 -138 -156
-269 -305 -131 -148 -254 -288 -274 -310 -20 -22 -101 -114 -181 -205 -79 -91
-147 -167 -150 -170 -3 -3 -39 -43 -80 -90 -85 -97 -85 -97 -251 -285 -69 -77
-241 -273 -384 -435 -226 -257 -295 -334 -340 -384 -6 -6 -57 -65 -115 -131
-58 -66 -119 -136 -137 -155 -17 -19 -41 -46 -53 -60 -30 -35 -123 -141 -135
-154 -5 -6 -44 -49 -85 -96 -41 -47 -91 -102 -110 -124 -19 -22 -45 -51 -57
-65 -36 -41 -64 -73 -134 -152 -140 -158 -317 -358 -374 -424 -33 -38 -96
-110 -141 -159 -44 -50 -154 -174 -244 -276 -89 -102 -179 -203 -199 -225 -20
-22 -85 -96 -146 -165 -60 -69 -112 -127 -115 -130 -3 -3 -54 -60 -113 -127
l-108 -122 -180 1 c-165 1 -182 -1 -198 -18 -36 -38 -257 -299 -265 -312 -7
-11 23 -12 165 -8 233 8 457 15 669 21 351 10 528 15 660 20 74 2 225 7 335
10 110 3 259 8 330 10 72 2 225 7 340 10 116 3 260 8 320 10 61 2 205 7 320
10 116 4 260 8 320 10 61 2 207 6 325 10 118 3 269 8 335 10 66 3 219 7 340
10 121 3 279 8 350 10 621 19 598 20 597 -15 -1 -32 -14 -258 -17 -300 -2 -30
-7 -102 -10 -160 -3 -58 -8 -138 -11 -179 l-5 -73 28 22 c15 12 71 63 123 113
53 51 124 119 159 151 l63 59 5 201 c3 111 6 203 8 204 2 2 59 6 127 8 159 6
374 12 415 13 l33 1 -4 73 c-2 39 -5 74 -5 77 -1 3 -127 4 -281 4 -279 -2
-280 -2 -281 20 -1 11 -1 24 -1 27 1 3 3 113 7 245 3 131 8 311 10 399 3 88 7
259 10 380 9 355 14 557 20 765 3 107 7 290 10 405 3 116 7 293 10 395 8 293
14 516 20 775 3 132 8 299 10 370 2 72 7 252 10 400 13 564 6 504 75 660 158
354 157 351 132 364 -10 5 -23 6 -30 2 -6 -3 -43 -78 -82 -166 -39 -87 -73
-161 -75 -163 -2 -2 -2 35 0 82 5 96 -6 71 135 319 71 125 79 157 42 157 -25
0 -41 -19 -92 -115 -24 -44 -52 -93 -62 -110 l-19 -30 4 82 4 83 98 145 c82
122 96 147 85 160 -27 32 -30 29 -136 -124 l-44 -65 0 76 0 76 95 122 c52 67
95 125 95 129 0 11 -23 31 -37 31 -6 0 -40 -36 -73 -80 -33 -44 -65 -80 -70
-80 -5 0 -7 12 -5 28 2 15 4 44 4 65 1 21 8 45 19 55 48 48 162 183 162 192 0
5 -9 14 -20 20 -22 12 -23 11 -112 -88 l-47 -53 4 153 c2 84 7 272 10 418 4
146 9 268 12 273 11 19 -8 3 -40 -32z m-123 -1088 c-2 -10 -5 -46 -7 -79 l-4
-62 -143 -183 c-121 -155 -180 -230 -283 -359 -62 -78 -296 -378 -312 -399
-20 -27 -57 -75 -201 -256 -73 -93 -579 -739 -923 -1180 -107 -137 -197 -252
-201 -255 -3 -3 -27 -34 -55 -70 -27 -36 -55 -72 -62 -80 -21 -26 -307 -390
-623 -795 -168 -214 -310 -397 -317 -405 -7 -8 -107 -136 -223 -285 -116 -148
-218 -278 -226 -288 -9 -11 -95 -121 -192 -245 -97 -125 -183 -234 -189 -242
-7 -8 -72 -92 -145 -185 -73 -94 -159 -202 -191 -242 l-58 -71 -340 0 c-187 0
-339 3 -337 8 2 6 95 113 133 154 6 6 111 126 235 266 123 140 227 257 230
260 3 3 55 61 115 130 60 69 112 127 115 130 3 3 39 43 80 90 41 47 86 99 101
115 14 17 64 73 110 125 46 52 86 97 89 100 3 3 37 41 75 85 39 44 84 96 101
115 71 80 298 337 424 480 74 85 142 161 150 170 8 9 44 49 80 90 80 92 96
110 251 285 68 77 155 176 194 220 76 87 108 124 177 200 25 28 134 151 242
275 109 124 212 241 230 260 17 19 81 91 141 160 60 69 114 130 120 136 5 6
37 42 70 79 33 38 100 114 149 169 150 170 210 237 296 336 46 52 86 97 89
100 4 3 54 59 111 125 58 66 107 122 110 125 3 3 36 41 75 85 38 44 72 82 75
85 3 3 109 122 234 265 126 143 245 278 265 300 20 22 63 70 95 108 60 68 77
81 70 50z m-19 -283 c-2 -11 -5 -52 -6 -91 l-2 -70 -276 -407 c-152 -224 -335
-492 -406 -597 -71 -104 -152 -224 -180 -265 -28 -41 -109 -160 -180 -265 -71
-104 -165 -244 -210 -310 -45 -66 -169 -248 -275 -405 -106 -157 -230 -339
-275 -405 -45 -66 -144 -212 -220 -325 -77 -113 -263 -387 -415 -610 -151
-223 -324 -477 -383 -565 -60 -88 -154 -227 -210 -310 -205 -301 -362 -532
-435 -640 -41 -60 -81 -115 -89 -122 -11 -8 -109 -11 -354 -11 -311 0 -339 2
-327 16 7 9 18 23 25 32 7 8 132 168 278 355 147 187 310 396 363 464 53 68
102 129 107 135 6 6 33 40 60 76 28 36 212 272 410 524 198 252 387 493 420
536 33 42 72 92 87 111 15 19 96 122 179 229 236 302 269 344 282 360 7 8 100
128 208 265 107 138 285 364 395 504 109 140 224 286 253 325 30 39 60 76 65
82 6 7 256 325 556 708 300 383 548 696 552 696 4 0 5 -9 3 -20z m-21 -337
c-2 -27 -5 -77 -7 -113 -4 -62 -10 -75 -154 -330 -83 -146 -160 -282 -172
-302 -11 -21 -29 -53 -39 -70 -44 -77 -901 -1593 -957 -1693 -34 -60 -71 -126
-82 -145 -20 -35 -604 -1067 -651 -1150 -14 -25 -112 -198 -217 -385 -106
-187 -204 -360 -218 -385 -14 -25 -81 -144 -150 -265 l-124 -220 -346 -1
c-257 -1 -345 1 -340 10 7 13 234 348 368 546 51 74 156 230 235 345 78 116
175 260 217 320 302 446 494 729 733 1081 151 223 313 461 360 529 47 68 141
208 210 310 69 102 154 228 190 280 36 52 111 163 168 247 57 84 194 286 304
448 110 162 266 392 346 510 240 354 326 480 327 480 1 0 1 -21 -1 -47z m-29
-470 l-7 -138 -64 -148 c-36 -82 -78 -176 -94 -210 -36 -80 -57 -126 -118
-267 -27 -63 -62 -142 -77 -175 -14 -33 -32 -73 -40 -90 -7 -16 -22 -50 -33
-75 -11 -25 -106 -241 -212 -480 -105 -239 -205 -463 -221 -498 -16 -35 -29
-65 -29 -67 0 -3 -13 -33 -29 -67 -15 -35 -61 -137 -100 -227 -40 -90 -80
-182 -91 -205 -10 -22 -32 -72 -49 -109 -17 -38 -31 -70 -31 -72 0 -2 -13 -32
-29 -67 -44 -95 -151 -339 -151 -343 0 -2 -16 -39 -36 -82 -20 -43 -76 -169
-125 -280 -48 -111 -98 -223 -110 -250 -12 -26 -27 -61 -34 -78 -7 -16 -25
-57 -40 -90 -15 -33 -54 -121 -87 -195 -33 -74 -73 -163 -89 -198 -16 -35 -29
-65 -29 -67 0 -3 -12 -29 -26 -59 l-26 -55 -344 1 c-189 0 -344 3 -344 5 0 4
108 200 162 293 11 19 62 109 113 200 51 91 129 228 172 305 69 121 230 406
283 500 9 17 134 237 277 490 143 253 271 480 285 505 14 25 72 128 130 230
58 102 203 358 323 570 120 212 227 401 238 420 11 19 31 55 45 80 14 25 63
113 110 195 47 83 99 175 115 205 17 30 48 84 69 119 21 34 38 65 38 68 0 2
27 51 60 107 66 115 86 150 180 319 36 64 66 117 68 117 2 0 1 -62 -3 -137z
m-19 -361 c-2 -4 -7 -66 -11 -137 -4 -72 -8 -150 -10 -175 -2 -25 -7 -97 -10
-160 -4 -63 -8 -140 -10 -170 -2 -30 -6 -102 -10 -160 -3 -58 -8 -134 -10
-170 -3 -36 -7 -103 -10 -150 -14 -236 -16 -279 -20 -330 -2 -30 -7 -107 -10
-170 -3 -63 -8 -140 -10 -170 -2 -30 -7 -102 -10 -160 -4 -58 -8 -130 -10
-160 -2 -30 -6 -102 -10 -160 -8 -127 -12 -202 -20 -340 -3 -58 -7 -125 -10
-150 -2 -25 -7 -99 -10 -165 -4 -66 -8 -142 -10 -170 -2 -27 -7 -97 -10 -155
-7 -121 -12 -212 -19 -325 -3 -44 -8 -123 -11 -175 -3 -52 -8 -124 -10 -160
-3 -36 -7 -112 -11 -170 -3 -58 -7 -114 -8 -125 -1 -20 -9 -20 -813 -22 l-812
-1 13 31 c7 18 83 190 169 382 85 193 196 445 247 560 51 116 105 238 121 273
16 35 29 65 29 68 0 2 13 32 29 66 16 35 236 531 489 1103 253 572 471 1065
484 1095 14 30 85 191 158 358 73 166 137 302 142 302 5 0 7 -3 4 -8z"/>
<path d="M6378 4287 l-198 -82 -1 -80 c0 -44 -2 -96 -3 -116 l-3 -36 51 9 c28
4 83 13 121 19 39 5 84 12 100 15 17 2 50 7 75 11 84 11 84 10 80 99 -3 93 -8
214 -9 232 -1 6 -4 12 -8 12 -5 -1 -97 -38 -205 -83z"/>
</g>
</svg>
