<?xml version="1.0" encoding="UTF-8"?>
<svg width="21px" height="19px" viewBox="0 1 21 19" version="1.1" xmlns="http://www.w3.org/2000/svg" xmlns:xlink="http://www.w3.org/1999/xlink">
    <!-- Generator: Sketch 42 (36781) - http://www.bohemiancoding.com/sketch -->
    <title>Twitter</title>
    <desc>Created with Sketch.</desc>
    <defs></defs>
    <g id="Page-2" stroke="none" stroke-width="1" fill="none" fill-rule="evenodd">
        <g id="Macbook-Pro" transform="translate(-1111.000000, -19.000000)">
            <g id="Group-15" transform="translate(117.000000, 10.000000)">
                <g id="Group-10" transform="translate(963.000000, 8.000000)">
                    <g id="Twitter" transform="translate(31.000000, 0.000000)">
                        <path d="M20.962406,3.92462771 C20.1921726,4.2760181 19.3628798,4.51364901 18.4929836,4.61982453 C19.3813359,4.07377902 20.0629801,3.20794298 20.3841158,2.1765237 C19.5523622,2.68212139 18.6332498,3.0499437 17.6513868,3.2471268 C16.8688494,2.38887473 15.7504114,1.85294118 14.5126242,1.85294118 C12.1391734,1.85294118 10.21359,3.83109213 10.21359,6.27060098 C10.21359,6.6169354 10.2505021,6.95315786 10.3243264,7.27674038 C6.75000055,7.09219723 3.58170828,5.33524526 1.45926005,2.65936949 C1.08890822,3.3141185 0.877278599,4.07377902 0.877278599,4.88273533 C0.877278599,6.41469632 1.63643834,7.76717014 2.79055801,8.55969452 C2.08676648,8.53820662 1.42234791,8.33723153 0.841596861,8.00859304 L0.841596861,8.06294479 C0.841596861,10.204151 2.3242346,11.9901748 4.29288223,12.394653 C3.93237364,12.4983005 3.55217856,12.5501243 3.15967944,12.5501243 C2.88283837,12.5501243 2.61214932,12.5235804 2.3500731,12.4717566 C2.89760323,14.2261806 4.48482538,15.5040788 6.36734467,15.5382066 C4.89578057,16.7238332 3.04033018,17.430406 1.02615758,17.430406 C0.679183431,17.430406 0.335900501,17.4101821 0,17.3697342 C1.90343617,18.6210885 4.16492014,19.3529412 6.59250874,19.3529412 C14.5040114,19.3529412 18.8288841,12.6221719 18.8288841,6.78378264 C18.8288841,6.59165551 18.8251929,6.39952839 18.8178105,6.21119325 C19.658177,5.5880441 20.387807,4.81068766 20.962406,3.92462771" id="Twitter-Copy" fill="#FFFFFF"></path>
                        <rect id="Rectangle-Copy-4" x="0" y="0" width="20.962406" height="21"></rect>
                    </g>
                </g>
            </g>
        </g>
    </g>
</svg>